<mxfile host="app.diagrams.net" modified="2023-06-16T20:40:10.424Z" agent="Mozilla/5.0 (Windows NT 10.0; Win64; x64) AppleWebKit/537.36 (KHTML, like Gecko) Chrome/114.0.0.0 Safari/537.36" etag="GPotT78m0LDTgqfvtimV" version="21.3.0" type="device">
  <diagram name="Page-1" id="lsS20C5zTrfD5e3MIUL_">
    <mxGraphModel dx="2051" dy="603" grid="1" gridSize="10" guides="1" tooltips="1" connect="1" arrows="1" fold="1" page="1" pageScale="1" pageWidth="850" pageHeight="1100" math="0" shadow="0">
      <root>
        <mxCell id="0" />
        <mxCell id="1" parent="0" />
        <mxCell id="QSIw_6FlELN4jDEuBsNI-1" value="Ability&lt;br&gt;(abstract)" style="rounded=1;whiteSpace=wrap;html=1;" vertex="1" parent="1">
          <mxGeometry x="310" y="310" width="240" height="110" as="geometry" />
        </mxCell>
        <mxCell id="QSIw_6FlELN4jDEuBsNI-6" style="rounded=0;orthogonalLoop=1;jettySize=auto;html=1;exitX=0.5;exitY=0;exitDx=0;exitDy=0;entryX=0.032;entryY=0.976;entryDx=0;entryDy=0;entryPerimeter=0;" edge="1" parent="1" source="QSIw_6FlELN4jDEuBsNI-2" target="QSIw_6FlELN4jDEuBsNI-1">
          <mxGeometry relative="1" as="geometry">
            <mxPoint x="310" y="420" as="targetPoint" />
          </mxGeometry>
        </mxCell>
        <mxCell id="QSIw_6FlELN4jDEuBsNI-2" value="StatBuffAbility" style="rounded=1;whiteSpace=wrap;html=1;" vertex="1" parent="1">
          <mxGeometry x="100" y="520" width="120" height="60" as="geometry" />
        </mxCell>
        <mxCell id="QSIw_6FlELN4jDEuBsNI-7" style="rounded=0;orthogonalLoop=1;jettySize=auto;html=1;exitX=0.5;exitY=0;exitDx=0;exitDy=0;entryX=0.5;entryY=1;entryDx=0;entryDy=0;" edge="1" parent="1" source="QSIw_6FlELN4jDEuBsNI-3" target="QSIw_6FlELN4jDEuBsNI-1">
          <mxGeometry relative="1" as="geometry" />
        </mxCell>
        <mxCell id="QSIw_6FlELN4jDEuBsNI-3" value="MovementAbility" style="rounded=1;whiteSpace=wrap;html=1;" vertex="1" parent="1">
          <mxGeometry x="370" y="520" width="120" height="60" as="geometry" />
        </mxCell>
        <mxCell id="QSIw_6FlELN4jDEuBsNI-8" style="rounded=0;orthogonalLoop=1;jettySize=auto;html=1;exitX=0.5;exitY=0;exitDx=0;exitDy=0;entryX=0.972;entryY=0.962;entryDx=0;entryDy=0;entryPerimeter=0;" edge="1" parent="1" source="QSIw_6FlELN4jDEuBsNI-4" target="QSIw_6FlELN4jDEuBsNI-1">
          <mxGeometry relative="1" as="geometry" />
        </mxCell>
        <mxCell id="QSIw_6FlELN4jDEuBsNI-4" value="DamageAbility&lt;br&gt;(abstract)" style="rounded=1;whiteSpace=wrap;html=1;" vertex="1" parent="1">
          <mxGeometry x="610" y="520" width="120" height="60" as="geometry" />
        </mxCell>
        <mxCell id="QSIw_6FlELN4jDEuBsNI-9" style="rounded=0;orthogonalLoop=1;jettySize=auto;html=1;exitX=0.5;exitY=0;exitDx=0;exitDy=0;entryX=0.5;entryY=1;entryDx=0;entryDy=0;" edge="1" parent="1" source="QSIw_6FlELN4jDEuBsNI-5" target="QSIw_6FlELN4jDEuBsNI-4">
          <mxGeometry relative="1" as="geometry" />
        </mxCell>
        <mxCell id="QSIw_6FlELN4jDEuBsNI-5" value="MeleeAttackAbility" style="rounded=1;whiteSpace=wrap;html=1;" vertex="1" parent="1">
          <mxGeometry x="610" y="620" width="120" height="60" as="geometry" />
        </mxCell>
        <mxCell id="QSIw_6FlELN4jDEuBsNI-12" value="SO_Ability" style="swimlane;fontStyle=0;childLayout=stackLayout;horizontal=1;startSize=30;horizontalStack=0;resizeParent=1;resizeParentMax=0;resizeLast=0;collapsible=1;marginBottom=0;whiteSpace=wrap;html=1;" vertex="1" parent="1">
          <mxGeometry x="-565" y="180" width="200" height="330" as="geometry">
            <mxRectangle x="-565" y="180" width="100" height="30" as="alternateBounds" />
          </mxGeometry>
        </mxCell>
        <mxCell id="QSIw_6FlELN4jDEuBsNI-17" value="AnimationClip animation" style="text;strokeColor=none;fillColor=none;align=left;verticalAlign=middle;spacingLeft=4;spacingRight=4;overflow=hidden;points=[[0,0.5],[1,0.5]];portConstraint=eastwest;rotatable=0;whiteSpace=wrap;html=1;" vertex="1" parent="QSIw_6FlELN4jDEuBsNI-12">
          <mxGeometry y="30" width="200" height="30" as="geometry" />
        </mxCell>
        <mxCell id="QSIw_6FlELN4jDEuBsNI-18" value="string name" style="text;strokeColor=none;fillColor=none;align=left;verticalAlign=middle;spacingLeft=4;spacingRight=4;overflow=hidden;points=[[0,0.5],[1,0.5]];portConstraint=eastwest;rotatable=0;whiteSpace=wrap;html=1;" vertex="1" parent="QSIw_6FlELN4jDEuBsNI-12">
          <mxGeometry y="60" width="200" height="30" as="geometry" />
        </mxCell>
        <mxCell id="QSIw_6FlELN4jDEuBsNI-14" value="AbilityCost cost" style="text;strokeColor=none;fillColor=none;align=left;verticalAlign=middle;spacingLeft=4;spacingRight=4;overflow=hidden;points=[[0,0.5],[1,0.5]];portConstraint=eastwest;rotatable=0;whiteSpace=wrap;html=1;" vertex="1" parent="QSIw_6FlELN4jDEuBsNI-12">
          <mxGeometry y="90" width="200" height="30" as="geometry" />
        </mxCell>
        <mxCell id="QSIw_6FlELN4jDEuBsNI-15" value="float cooldown" style="text;strokeColor=none;fillColor=none;align=left;verticalAlign=middle;spacingLeft=4;spacingRight=4;overflow=hidden;points=[[0,0.5],[1,0.5]];portConstraint=eastwest;rotatable=0;whiteSpace=wrap;html=1;" vertex="1" parent="QSIw_6FlELN4jDEuBsNI-12">
          <mxGeometry y="120" width="200" height="30" as="geometry" />
        </mxCell>
        <mxCell id="QSIw_6FlELN4jDEuBsNI-19" value="float activeTime" style="text;strokeColor=none;fillColor=none;align=left;verticalAlign=middle;spacingLeft=4;spacingRight=4;overflow=hidden;points=[[0,0.5],[1,0.5]];portConstraint=eastwest;rotatable=0;whiteSpace=wrap;html=1;" vertex="1" parent="QSIw_6FlELN4jDEuBsNI-12">
          <mxGeometry y="150" width="200" height="30" as="geometry" />
        </mxCell>
        <mxCell id="QSIw_6FlELN4jDEuBsNI-20" value="float castTime" style="text;strokeColor=none;fillColor=none;align=left;verticalAlign=middle;spacingLeft=4;spacingRight=4;overflow=hidden;points=[[0,0.5],[1,0.5]];portConstraint=eastwest;rotatable=0;whiteSpace=wrap;html=1;" vertex="1" parent="QSIw_6FlELN4jDEuBsNI-12">
          <mxGeometry y="180" width="200" height="30" as="geometry" />
        </mxCell>
        <mxCell id="QSIw_6FlELN4jDEuBsNI-21" value="bool isOnCooldown" style="text;strokeColor=none;fillColor=none;align=left;verticalAlign=middle;spacingLeft=4;spacingRight=4;overflow=hidden;points=[[0,0.5],[1,0.5]];portConstraint=eastwest;rotatable=0;whiteSpace=wrap;html=1;" vertex="1" parent="QSIw_6FlELN4jDEuBsNI-12">
          <mxGeometry y="210" width="200" height="30" as="geometry" />
        </mxCell>
        <mxCell id="QSIw_6FlELN4jDEuBsNI-22" value="bool requiresTarget" style="text;strokeColor=none;fillColor=none;align=left;verticalAlign=middle;spacingLeft=4;spacingRight=4;overflow=hidden;points=[[0,0.5],[1,0.5]];portConstraint=eastwest;rotatable=0;whiteSpace=wrap;html=1;" vertex="1" parent="QSIw_6FlELN4jDEuBsNI-12">
          <mxGeometry y="240" width="200" height="30" as="geometry" />
        </mxCell>
        <mxCell id="QSIw_6FlELN4jDEuBsNI-23" value="bool isInstantCast" style="text;strokeColor=none;fillColor=none;align=left;verticalAlign=middle;spacingLeft=4;spacingRight=4;overflow=hidden;points=[[0,0.5],[1,0.5]];portConstraint=eastwest;rotatable=0;whiteSpace=wrap;html=1;" vertex="1" parent="QSIw_6FlELN4jDEuBsNI-12">
          <mxGeometry y="270" width="200" height="30" as="geometry" />
        </mxCell>
        <mxCell id="QSIw_6FlELN4jDEuBsNI-24" value="List&amp;lt;SO_Ability&amp;gt; stackedAbilities" style="text;strokeColor=none;fillColor=none;align=left;verticalAlign=middle;spacingLeft=4;spacingRight=4;overflow=hidden;points=[[0,0.5],[1,0.5]];portConstraint=eastwest;rotatable=0;whiteSpace=wrap;html=1;" vertex="1" parent="QSIw_6FlELN4jDEuBsNI-12">
          <mxGeometry y="300" width="200" height="30" as="geometry" />
        </mxCell>
        <mxCell id="QSIw_6FlELN4jDEuBsNI-31" style="rounded=0;orthogonalLoop=1;jettySize=auto;html=1;exitX=0.5;exitY=0;exitDx=0;exitDy=0;entryX=0;entryY=1;entryDx=0;entryDy=0;" edge="1" parent="1" source="QSIw_6FlELN4jDEuBsNI-26" target="QSIw_6FlELN4jDEuBsNI-12">
          <mxGeometry relative="1" as="geometry" />
        </mxCell>
        <mxCell id="QSIw_6FlELN4jDEuBsNI-26" value="SO_StatBuffAbility" style="swimlane;fontStyle=0;childLayout=stackLayout;horizontal=1;startSize=30;horizontalStack=0;resizeParent=1;resizeParentMax=0;resizeLast=0;collapsible=1;marginBottom=0;whiteSpace=wrap;html=1;" vertex="1" parent="1">
          <mxGeometry x="-730" y="550" width="140" height="150" as="geometry">
            <mxRectangle x="-730" y="550" width="140" height="30" as="alternateBounds" />
          </mxGeometry>
        </mxCell>
        <mxCell id="QSIw_6FlELN4jDEuBsNI-27" value="Stats.Stat statType" style="text;strokeColor=none;fillColor=none;align=left;verticalAlign=middle;spacingLeft=4;spacingRight=4;overflow=hidden;points=[[0,0.5],[1,0.5]];portConstraint=eastwest;rotatable=0;whiteSpace=wrap;html=1;" vertex="1" parent="QSIw_6FlELN4jDEuBsNI-26">
          <mxGeometry y="30" width="140" height="30" as="geometry" />
        </mxCell>
        <mxCell id="QSIw_6FlELN4jDEuBsNI-28" value="float amount" style="text;strokeColor=none;fillColor=none;align=left;verticalAlign=middle;spacingLeft=4;spacingRight=4;overflow=hidden;points=[[0,0.5],[1,0.5]];portConstraint=eastwest;rotatable=0;whiteSpace=wrap;html=1;" vertex="1" parent="QSIw_6FlELN4jDEuBsNI-26">
          <mxGeometry y="60" width="140" height="30" as="geometry" />
        </mxCell>
        <mxCell id="QSIw_6FlELN4jDEuBsNI-29" value="bool isDurationBased" style="text;strokeColor=none;fillColor=none;align=left;verticalAlign=middle;spacingLeft=4;spacingRight=4;overflow=hidden;points=[[0,0.5],[1,0.5]];portConstraint=eastwest;rotatable=0;whiteSpace=wrap;html=1;" vertex="1" parent="QSIw_6FlELN4jDEuBsNI-26">
          <mxGeometry y="90" width="140" height="30" as="geometry" />
        </mxCell>
        <mxCell id="QSIw_6FlELN4jDEuBsNI-30" value="float duration" style="text;strokeColor=none;fillColor=none;align=left;verticalAlign=middle;spacingLeft=4;spacingRight=4;overflow=hidden;points=[[0,0.5],[1,0.5]];portConstraint=eastwest;rotatable=0;whiteSpace=wrap;html=1;" vertex="1" parent="QSIw_6FlELN4jDEuBsNI-26">
          <mxGeometry y="120" width="140" height="30" as="geometry" />
        </mxCell>
        <mxCell id="QSIw_6FlELN4jDEuBsNI-36" style="rounded=0;orthogonalLoop=1;jettySize=auto;html=1;exitX=0.5;exitY=0;exitDx=0;exitDy=0;entryX=0.5;entryY=1;entryDx=0;entryDy=0;" edge="1" parent="1" source="QSIw_6FlELN4jDEuBsNI-32" target="QSIw_6FlELN4jDEuBsNI-12">
          <mxGeometry relative="1" as="geometry" />
        </mxCell>
        <mxCell id="QSIw_6FlELN4jDEuBsNI-32" value="SO_MovementAbility" style="swimlane;fontStyle=0;childLayout=stackLayout;horizontal=1;startSize=30;horizontalStack=0;resizeParent=1;resizeParentMax=0;resizeLast=0;collapsible=1;marginBottom=0;whiteSpace=wrap;html=1;" vertex="1" parent="1">
          <mxGeometry x="-545" y="545" width="160" height="90" as="geometry">
            <mxRectangle x="-540" y="545" width="150" height="30" as="alternateBounds" />
          </mxGeometry>
        </mxCell>
        <mxCell id="QSIw_6FlELN4jDEuBsNI-33" value="float directionRotModifier" style="text;strokeColor=none;fillColor=none;align=left;verticalAlign=middle;spacingLeft=4;spacingRight=4;overflow=hidden;points=[[0,0.5],[1,0.5]];portConstraint=eastwest;rotatable=0;whiteSpace=wrap;html=1;" vertex="1" parent="QSIw_6FlELN4jDEuBsNI-32">
          <mxGeometry y="30" width="160" height="30" as="geometry" />
        </mxCell>
        <mxCell id="QSIw_6FlELN4jDEuBsNI-34" value="float speed" style="text;strokeColor=none;fillColor=none;align=left;verticalAlign=middle;spacingLeft=4;spacingRight=4;overflow=hidden;points=[[0,0.5],[1,0.5]];portConstraint=eastwest;rotatable=0;whiteSpace=wrap;html=1;" vertex="1" parent="QSIw_6FlELN4jDEuBsNI-32">
          <mxGeometry y="60" width="160" height="30" as="geometry" />
        </mxCell>
        <mxCell id="QSIw_6FlELN4jDEuBsNI-41" style="rounded=0;orthogonalLoop=1;jettySize=auto;html=1;exitX=0.5;exitY=0;exitDx=0;exitDy=0;entryX=1;entryY=1;entryDx=0;entryDy=0;" edge="1" parent="1" source="QSIw_6FlELN4jDEuBsNI-37" target="QSIw_6FlELN4jDEuBsNI-12">
          <mxGeometry relative="1" as="geometry" />
        </mxCell>
        <mxCell id="QSIw_6FlELN4jDEuBsNI-37" value="SO_DamageAbility" style="swimlane;fontStyle=0;childLayout=stackLayout;horizontal=1;startSize=30;horizontalStack=0;resizeParent=1;resizeParentMax=0;resizeLast=0;collapsible=1;marginBottom=0;whiteSpace=wrap;html=1;" vertex="1" parent="1">
          <mxGeometry x="-340" y="545" width="210" height="90" as="geometry">
            <mxRectangle x="-340" y="545" width="140" height="30" as="alternateBounds" />
          </mxGeometry>
        </mxCell>
        <mxCell id="QSIw_6FlELN4jDEuBsNI-38" value="float damage" style="text;strokeColor=none;fillColor=none;align=left;verticalAlign=middle;spacingLeft=4;spacingRight=4;overflow=hidden;points=[[0,0.5],[1,0.5]];portConstraint=eastwest;rotatable=0;whiteSpace=wrap;html=1;" vertex="1" parent="QSIw_6FlELN4jDEuBsNI-37">
          <mxGeometry y="30" width="210" height="30" as="geometry" />
        </mxCell>
        <mxCell id="QSIw_6FlELN4jDEuBsNI-39" value="IDamageMultiplier damageMultipliers" style="text;strokeColor=none;fillColor=none;align=left;verticalAlign=middle;spacingLeft=4;spacingRight=4;overflow=hidden;points=[[0,0.5],[1,0.5]];portConstraint=eastwest;rotatable=0;whiteSpace=wrap;html=1;" vertex="1" parent="QSIw_6FlELN4jDEuBsNI-37">
          <mxGeometry y="60" width="210" height="30" as="geometry" />
        </mxCell>
        <mxCell id="QSIw_6FlELN4jDEuBsNI-46" style="rounded=0;orthogonalLoop=1;jettySize=auto;html=1;exitX=0.5;exitY=0;exitDx=0;exitDy=0;entryX=0.5;entryY=1;entryDx=0;entryDy=0;" edge="1" parent="1" source="QSIw_6FlELN4jDEuBsNI-42" target="QSIw_6FlELN4jDEuBsNI-37">
          <mxGeometry relative="1" as="geometry" />
        </mxCell>
        <mxCell id="QSIw_6FlELN4jDEuBsNI-42" value="SO_MeleeAttackAbility" style="swimlane;fontStyle=0;childLayout=stackLayout;horizontal=1;startSize=30;horizontalStack=0;resizeParent=1;resizeParentMax=0;resizeLast=0;collapsible=1;marginBottom=0;whiteSpace=wrap;html=1;" vertex="1" parent="1">
          <mxGeometry x="-305" y="700" width="140" height="90" as="geometry" />
        </mxCell>
        <mxCell id="QSIw_6FlELN4jDEuBsNI-43" value="float radius" style="text;strokeColor=none;fillColor=none;align=left;verticalAlign=middle;spacingLeft=4;spacingRight=4;overflow=hidden;points=[[0,0.5],[1,0.5]];portConstraint=eastwest;rotatable=0;whiteSpace=wrap;html=1;" vertex="1" parent="QSIw_6FlELN4jDEuBsNI-42">
          <mxGeometry y="30" width="140" height="30" as="geometry" />
        </mxCell>
        <mxCell id="QSIw_6FlELN4jDEuBsNI-44" value="float swingAngle" style="text;strokeColor=none;fillColor=none;align=left;verticalAlign=middle;spacingLeft=4;spacingRight=4;overflow=hidden;points=[[0,0.5],[1,0.5]];portConstraint=eastwest;rotatable=0;whiteSpace=wrap;html=1;" vertex="1" parent="QSIw_6FlELN4jDEuBsNI-42">
          <mxGeometry y="60" width="140" height="30" as="geometry" />
        </mxCell>
        <mxCell id="QSIw_6FlELN4jDEuBsNI-47" value="Ability Activation Flow" style="text;html=1;strokeColor=none;fillColor=none;align=center;verticalAlign=middle;whiteSpace=wrap;rounded=0;fontSize=18;" vertex="1" parent="1">
          <mxGeometry x="50" y="820" width="180" height="60" as="geometry" />
        </mxCell>
        <mxCell id="QSIw_6FlELN4jDEuBsNI-48" value="Note: SO_Abilities contain the information that the corresponding Ability classes use." style="text;html=1;strokeColor=none;fillColor=none;align=center;verticalAlign=middle;whiteSpace=wrap;rounded=0;fontSize=16;" vertex="1" parent="1">
          <mxGeometry x="-590" y="60" width="270" height="110" as="geometry" />
        </mxCell>
        <mxCell id="QSIw_6FlELN4jDEuBsNI-51" style="edgeStyle=orthogonalEdgeStyle;rounded=0;orthogonalLoop=1;jettySize=auto;html=1;exitX=0.5;exitY=1;exitDx=0;exitDy=0;entryX=0;entryY=0.5;entryDx=0;entryDy=0;" edge="1" parent="1" source="QSIw_6FlELN4jDEuBsNI-49" target="QSIw_6FlELN4jDEuBsNI-50">
          <mxGeometry relative="1" as="geometry" />
        </mxCell>
        <mxCell id="QSIw_6FlELN4jDEuBsNI-49" value="Trigger" style="rounded=1;whiteSpace=wrap;html=1;fontSize=18;" vertex="1" parent="1">
          <mxGeometry x="50" y="890" width="120" height="60" as="geometry" />
        </mxCell>
        <mxCell id="QSIw_6FlELN4jDEuBsNI-53" style="edgeStyle=orthogonalEdgeStyle;rounded=0;orthogonalLoop=1;jettySize=auto;html=1;exitX=1;exitY=0.5;exitDx=0;exitDy=0;entryX=0;entryY=0.5;entryDx=0;entryDy=0;" edge="1" parent="1" source="QSIw_6FlELN4jDEuBsNI-50" target="QSIw_6FlELN4jDEuBsNI-52">
          <mxGeometry relative="1" as="geometry" />
        </mxCell>
        <mxCell id="QSIw_6FlELN4jDEuBsNI-56" style="edgeStyle=orthogonalEdgeStyle;rounded=0;orthogonalLoop=1;jettySize=auto;html=1;exitX=1;exitY=0.75;exitDx=0;exitDy=0;entryX=0;entryY=0.5;entryDx=0;entryDy=0;" edge="1" parent="1" source="QSIw_6FlELN4jDEuBsNI-50" target="QSIw_6FlELN4jDEuBsNI-55">
          <mxGeometry relative="1" as="geometry" />
        </mxCell>
        <mxCell id="QSIw_6FlELN4jDEuBsNI-58" style="edgeStyle=orthogonalEdgeStyle;rounded=0;orthogonalLoop=1;jettySize=auto;html=1;exitX=1;exitY=1;exitDx=0;exitDy=0;entryX=0;entryY=0.5;entryDx=0;entryDy=0;" edge="1" parent="1" source="QSIw_6FlELN4jDEuBsNI-50" target="QSIw_6FlELN4jDEuBsNI-57">
          <mxGeometry relative="1" as="geometry" />
        </mxCell>
        <mxCell id="QSIw_6FlELN4jDEuBsNI-60" style="edgeStyle=orthogonalEdgeStyle;rounded=0;orthogonalLoop=1;jettySize=auto;html=1;exitX=0.75;exitY=1;exitDx=0;exitDy=0;entryX=0;entryY=0.5;entryDx=0;entryDy=0;" edge="1" parent="1" source="QSIw_6FlELN4jDEuBsNI-50" target="QSIw_6FlELN4jDEuBsNI-59">
          <mxGeometry relative="1" as="geometry" />
        </mxCell>
        <mxCell id="QSIw_6FlELN4jDEuBsNI-62" style="edgeStyle=orthogonalEdgeStyle;rounded=0;orthogonalLoop=1;jettySize=auto;html=1;exitX=0.5;exitY=1;exitDx=0;exitDy=0;entryX=0;entryY=0.5;entryDx=0;entryDy=0;" edge="1" parent="1" source="QSIw_6FlELN4jDEuBsNI-50" target="QSIw_6FlELN4jDEuBsNI-61">
          <mxGeometry relative="1" as="geometry" />
        </mxCell>
        <mxCell id="QSIw_6FlELN4jDEuBsNI-50" value="Verify Constraints" style="rounded=1;whiteSpace=wrap;html=1;fontSize=18;" vertex="1" parent="1">
          <mxGeometry x="200" y="990" width="120" height="60" as="geometry" />
        </mxCell>
        <mxCell id="QSIw_6FlELN4jDEuBsNI-52" value="Activate" style="rounded=1;whiteSpace=wrap;html=1;fontSize=18;" vertex="1" parent="1">
          <mxGeometry x="400" y="990" width="120" height="60" as="geometry" />
        </mxCell>
        <mxCell id="QSIw_6FlELN4jDEuBsNI-55" value="Start CD" style="rounded=1;whiteSpace=wrap;html=1;fontSize=18;" vertex="1" parent="1">
          <mxGeometry x="400" y="1050" width="120" height="60" as="geometry" />
        </mxCell>
        <mxCell id="QSIw_6FlELN4jDEuBsNI-57" value="Spend Costs" style="rounded=1;whiteSpace=wrap;html=1;fontSize=18;" vertex="1" parent="1">
          <mxGeometry x="400" y="1110" width="120" height="60" as="geometry" />
        </mxCell>
        <mxCell id="QSIw_6FlELN4jDEuBsNI-59" value="Animate" style="rounded=1;whiteSpace=wrap;html=1;fontSize=18;" vertex="1" parent="1">
          <mxGeometry x="400" y="1170" width="120" height="60" as="geometry" />
        </mxCell>
        <mxCell id="QSIw_6FlELN4jDEuBsNI-61" value="Activate Stacked Abilities" style="rounded=1;whiteSpace=wrap;html=1;fontSize=18;" vertex="1" parent="1">
          <mxGeometry x="400" y="1230" width="120" height="60" as="geometry" />
        </mxCell>
      </root>
    </mxGraphModel>
  </diagram>
</mxfile>
